<svg width="34" height="35" viewBox="0 0 34 35" fill="none" xmlns="http://www.w3.org/2000/svg">
<g clip-path="url(#clip0_996_5)">
<path d="M17 34.0112C26.104 34.0112 33.645 26.4863 33.645 17.3662C33.645 8.26221 26.104 0.721191 16.9839 0.721191C7.87988 0.721191 0.35498 8.26221 0.35498 17.3662C0.35498 26.4863 7.896 34.0112 17 34.0112ZM17 30.7402C9.58789 30.7402 3.64209 24.7783 3.64209 17.3662C3.64209 9.9541 9.57178 4.0083 16.9839 4.0083C24.396 4.0083 30.3579 9.9541 30.374 17.3662C30.374 24.7783 24.4121 30.7402 17 30.7402ZM9.53955 17.3662C9.53955 18.2363 10.168 18.8486 11.0703 18.8486H15.4854V23.2798C15.4854 24.166 16.0977 24.7944 16.9678 24.7944C17.8701 24.7944 18.4985 24.166 18.4985 23.2798V18.8486H22.9297C23.8159 18.8486 24.4282 18.2363 24.4282 17.3662C24.4282 16.4639 23.8159 15.8354 22.9297 15.8354H18.4985V11.4204C18.4985 10.5181 17.8701 9.90576 16.9678 9.90576C16.0977 9.90576 15.4854 10.5181 15.4854 11.4204V15.8354H11.0703C10.168 15.8354 9.53955 16.4639 9.53955 17.3662Z" fill="white"/>
</g>
<defs>
<clipPath id="clip0_996_5">
<rect width="34" height="35" fill="white"/>
</clipPath>
</defs>
</svg>
